<svg role="img" aria-hidden="true" focusable="false" xmlns="http://www.w3.org/2000/svg" viewBox="0 0 500 500"><defs><linearGradient id="a" x1="250" x2="250" y1="314.59" y2="60" gradientUnits="userSpaceOnUse"><stop offset="0" stop-color="#796da2"/><stop offset=".39" stop-color="#594c88"/><stop offset=".77" stop-color="#413274"/><stop offset="1" stop-color="#38296d"/></linearGradient></defs><rect width="498" height="254.59" x="1" y="60" fill="url(#a)" rx="62.51" ry="62.51"/><rect width="270.66" height="243.04" x="21.44" y="71.55" fill="#38296d" rx="49.59" ry="49.59"/><path fill="#aea7c9" d="M436.49 60H63.51C28.99 60 1 87.99 1 122.51v129.56c0 34.52 27.99 62.51 62.51 62.51h372.98c34.52 0 62.51-27.99 62.51-62.51V122.51C499 87.99 471.01 60 436.49 60ZM487 252.08c0 27.85-22.66 50.51-50.51 50.51H63.51c-27.85 0-50.51-22.66-50.51-50.51V122.51C13 94.66 35.66 72 63.51 72h372.98C464.34 72 487 94.66 487 122.51v129.56Z"/><path fill="#f4f3f9" d="M209.44 66.64H63.21c-30.31 0-54.88 24.95-54.88 55.73v133.04c0 30.78 24.57 55.73 54.88 55.73h49.91v71.7c0 5.57 4.98 7.92 8.26 3.46l62.76-75.16h25.3c30.31 0 54.88-24.95 54.88-55.73V122.37c0-30.78-24.57-55.73-54.88-55.73Z"/><path fill="#938ab8" d="M213.63 72c25.38 0 46.03 20.65 46.03 46.03v138.53c0 25.38-20.65 46.03-46.03 46.03h-32.31l-3.59 4.24-56.05 66.11v-70.35H59.03c-25.38 0-46.03-20.65-46.03-46.03V118.03C13 92.65 33.65 72 59.03 72h154.6m0-12H59.03C26.98 60 1 85.98 1 118.03v138.53c0 32.05 25.98 58.03 58.03 58.03h50.65v74.66c0 3.7 3.01 6.03 6.08 6.03 1.75 0 3.51-.75 4.77-2.43l66.35-78.26h26.75c32.05 0 58.03-25.98 58.03-58.03V118.03c0-32.05-25.98-58.03-58.03-58.03Z"/><path fill="#cf2441" d="m152.85 187.29 30.06-30.06c4.56-4.56 4.56-11.96 0-16.52s-11.96-4.56-16.52 0l-30.06 30.06-30.06-30.06c-4.56-4.56-11.95-4.56-16.52 0-4.56 4.56-4.56 11.96 0 16.52l30.06 30.06-30.06 30.06c-4.56 4.56-4.56 11.96 0 16.52 2.28 2.28 5.27 3.42 8.26 3.42s5.98-1.14 8.26-3.42l30.06-30.06 30.06 30.06c2.28 2.28 5.27 3.42 8.26 3.42s5.98-1.14 8.26-3.42c4.56-4.56 4.56-11.96 0-16.52l-30.06-30.06Z"/></svg>